# xmcd
# 
# Track frame offsets:
#     150
#     3878
#     18281
#     34768
#     52061
#     67723
#     84635
#     107301
#     130117
#     146696
#     161491
#     204658
# 
# Disc length: 3042
# 
# Revision: 2
# Processed by: cddbd v1.5.2PL0 Copyright (c) Steve Scherf et al.
# Submitted via: fre:ac v1.0.31
# 
DISCID=910be00c
DTITLE=Realm - Suiciety [Metal Mind Reissue]
DYEAR=1990
DGENRE=Thrash Metal
TTITLE0=Rise
TTITLE1=Cain Rose Up (Scream Bloody Murder)
TTITLE2=Fragile Earth
TTITLE3=Energetic Discontent
TTITLE4=Gateway
TTITLE5=Final Solution
TTITLE6=The Brainchild
TTITLE7=La Flamme's Theory
TTITLE8=Dick
TTITLE9=Knee Deep In Blood
TTITLE10=Suiciety
TTITLE11=One More Red Nightmare [Bonus Track]
EXTD=
EXTT0=
EXTT1=
EXTT2=
EXTT3=
EXTT4=
EXTT5=
EXTT6=
EXTT7=
EXTT8=
EXTT9=
EXTT10=
EXTT11=
PLAYORDER=
